<?xml version="1.0" standalone="no"?>
<!DOCTYPE svg PUBLIC "-//W3C//DTD SVG 20010904//EN"
 "http://www.w3.org/TR/2001/REC-SVG-20010904/DTD/svg10.dtd">
<svg version="1.0" xmlns="http://www.w3.org/2000/svg"
 width="700.000000pt" height="700.000000pt" viewBox="0 0 700.000000 700.000000"
 preserveAspectRatio="xMidYMid meet">
<metadata>
Created by potrace 1.11, written by Peter Selinger 2001-2013
</metadata>
<g transform="translate(0.000000,700.000000) scale(0.100000,-0.100000)"
fill="#000000" stroke="none">
<path d="M3193 5129 c-242 -53 -377 -195 -318 -335 19 -45 81 -106 137 -135
l43 -22 -66 -13 c-159 -30 -375 -106 -525 -185 -44 -23 -91 -48 -106 -56 -23
-12 -156 -52 -228 -68 -8 -2 -46 -15 -83 -29 -251 -96 -349 -215 -272 -329 29
-42 31 -37 -45 -132 -69 -86 -114 -151 -164 -232 -20 -35 -42 -63 -47 -63 -6
0 -55 35 -110 78 -152 117 -248 180 -309 203 -165 62 -380 70 -531 19 -180
-61 -314 -185 -417 -385 -130 -254 -153 -592 -66 -955 48 -198 139 -415 236
-558 156 -231 387 -386 648 -433 76 -14 254 -14 323 -1 l47 9 47 -65 c45 -63
155 -180 217 -231 49 -40 191 -130 258 -162 35 -18 65 -33 67 -35 3 -3 -12
-22 -33 -43 -76 -77 -57 -158 54 -233 77 -51 255 -119 377 -142 10 -2 36 -9
58 -14 47 -12 264 -48 346 -57 31 -3 65 -7 75 -9 19 -4 134 -12 289 -22 119
-7 451 -7 610 1 139 6 168 8 275 20 172 19 210 24 275 35 33 6 74 13 90 16 43
8 237 54 255 61 8 4 17 7 20 8 93 23 229 91 280 138 42 39 58 72 55 114 -3 32
-45 97 -71 107 -17 7 -19 26 -1 26 19 0 204 108 273 159 123 92 241 217 305
324 29 49 38 57 64 57 49 0 190 38 259 69 254 115 404 344 501 766 64 281 89
374 130 489 100 281 221 484 325 544 260 151 301 281 102 323 -69 14 -266 18
-341 7 -142 -22 -230 -109 -350 -344 -28 -56 -51 -104 -51 -107 0 -15 -108
-232 -151 -304 -46 -75 -127 -170 -186 -215 -32 -25 -81 -44 -134 -52 l-45 -7
-18 78 c-80 339 -246 695 -453 971 -36 48 -69 89 -72 92 -3 3 -14 15 -25 27
-18 22 -18 23 8 53 14 18 27 37 27 43 1 7 3 23 4 37 6 57 -39 116 -132 177
-69 44 -170 84 -335 132 -88 26 -168 57 -238 94 -165 87 -331 148 -509 186
l-84 18 50 30 c222 137 170 340 -111 440 -130 46 -351 56 -503 22z m-2240
-1698 c40 -13 101 -54 249 -167 51 -39 105 -79 120 -88 l27 -18 -26 -71 c-30
-82 -81 -256 -89 -302 -3 -16 -9 -46 -14 -65 -4 -19 -11 -53 -14 -75 -3 -22
-8 -50 -10 -62 -3 -12 -8 -53 -11 -90 -4 -37 -9 -81 -11 -98 -8 -62 -4 -352 6
-410 17 -105 23 -99 -77 -92 -255 15 -453 164 -596 447 -33 65 -81 198 -92
253 -2 10 -6 26 -9 35 -5 17 -10 49 -26 161 -10 72 -5 213 9 286 37 183 130
308 263 354 53 18 80 21 163 17 55 -2 117 -9 138 -15z"/>
</g>
</svg>
